<svg xmlns="http://www.w3.org/2000/svg" viewBox="0 0 1200 200" width="1200" height="200" fill="none" aria-hidden="true">
  <g stroke="#0a5560" stroke-width="1.6" stroke-linecap="round">
    <path d="M40 148 168 96 296 152 430 74 566 130 702 68 844 132 972 88 1104 146"/>
    <path d="M168 96 296 40 430 74"/>
    <path d="M566 130 702 178 844 132"/>
    <path d="M430 74 566 40 702 68"/>
    <path d="M844 132 972 182"/>
    <path d="M296 152 430 178"/>
  </g>
  <g fill="#0b8f92">
    <circle cx="168" cy="96" r="4.5"/>
    <circle cx="296" cy="152" r="3.5"/>
    <circle cx="430" cy="74" r="4.5"/>
    <circle cx="566" cy="130" r="3.5"/>
    <circle cx="702" cy="68" r="4.5"/>
    <circle cx="844" cy="132" r="3.5"/>
    <circle cx="972" cy="88" r="4.5"/>
    <circle cx="1104" cy="146" r="3"/>
    <circle cx="40" cy="148" r="3"/>
  </g>
  <g fill="#f2a03c">
    <circle cx="296" cy="40" r="4"/>
    <circle cx="972" cy="182" r="3.5"/>
  </g>
</svg>
